<svg width="406" height="616" viewBox="0 0 406 616" fill="none" xmlns="http://www.w3.org/2000/svg">
<path d="M270.39 292.642C282.401 294.218 295.196 298.158 308.774 304.463C322.352 310.767 334.885 319.698 346.375 331.255C358.386 342.813 368.308 356.998 376.142 373.809C383.975 390.095 387.892 409.007 387.892 430.547C387.892 456.814 383.975 479.405 376.142 498.317C368.308 517.23 358.386 532.99 346.375 545.599C334.885 557.682 322.091 567.401 307.99 574.756C294.412 581.585 281.095 586.839 268.039 590.516C255.506 594.194 244.278 596.558 234.355 597.609C224.433 598.134 217.905 598.397 214.772 598.397L53.5059 597.609L123.903 529.05H209.288C236.967 529.05 258.639 520.119 274.306 502.257C289.973 484.395 297.807 460.492 297.807 430.547C297.807 402.178 289.712 378.274 273.523 358.836C257.334 339.398 233.572 329.679 202.238 329.679H123.903V265.849H161.504C172.993 265.849 184.743 265.587 196.755 265.061C208.766 264.536 219.994 261.646 230.439 256.393C240.883 251.139 249.239 242.208 255.506 229.6C262.295 216.992 265.689 198.867 265.689 175.226C265.689 165.77 264.384 156.051 261.773 146.069C259.162 135.562 253.939 126.106 246.106 117.7C238.272 109.294 227.044 102.465 212.422 97.2114C197.799 91.9578 178.476 89.3311 154.454 89.3311H123.903L88.7044 17.6206H163.854C188.399 17.6206 212.16 20.51 235.139 26.2889C258.117 32.0678 278.484 41.2614 296.24 53.8699C313.996 66.4783 328.096 83.0269 338.541 103.516C348.986 123.479 354.208 147.382 354.208 175.226C354.208 191.512 351.597 206.484 346.375 220.144C341.152 233.277 334.624 244.835 326.791 254.817C318.957 264.798 309.818 273.204 299.374 280.034C289.451 286.338 279.79 290.541 270.39 292.642Z" fill="#FFD700"/>
<path d="M36.4015 598.397C32.7717 598.397 21.2772 597.842 1.91796 596.733L0.708008 549.595C7.96771 552.183 16.2357 553.477 25.512 553.477C36.4015 553.477 45.4762 551.259 52.7359 546.822C60.3989 542.386 64.2304 535.361 64.2304 525.749V381.562C64.2304 360.858 69.8768 343.667 81.1697 329.988C92.8659 316.308 107.587 308.544 125.333 306.696C108.394 304.847 93.8742 295.605 81.7747 278.968C70.0785 262.331 64.2304 244.03 64.2304 224.066V70.4512C64.2304 60.8388 60.6005 53.9991 53.3408 49.9323C46.4845 45.8655 37.8132 43.8321 27.3269 43.8321C18.4539 43.8321 9.58098 45.3109 0.708008 48.2686L1.91796 1.68516C11.5976 0.576042 23.0921 0.0214844 36.4015 0.0214844C96.0924 0.0214844 125.938 28.1194 125.938 84.3153V208.538C125.938 229.242 128.963 244.954 135.013 255.676C141.062 266.397 148.927 273.422 158.607 276.749C168.286 279.707 180.184 281.186 194.3 281.186V327.215C180.184 327.215 168.286 329.063 158.607 332.76C148.927 336.457 141.062 343.852 135.013 354.943C128.963 366.034 125.938 382.302 125.938 403.745V511.885C125.938 541.831 118.275 563.459 102.949 576.769C88.0261 590.448 65.8437 597.658 36.4015 598.397Z" fill="#FFD700"/>
<path d="M287.989 310.241C300 311.817 312.795 315.757 326.373 322.062C339.951 328.366 352.485 337.297 363.974 348.855C375.985 360.412 385.908 374.597 393.741 391.408C401.575 407.694 405.491 426.607 405.491 448.146C405.491 474.414 401.575 497.004 393.741 515.916C385.908 534.829 375.985 550.59 363.974 563.198C352.485 575.281 339.69 585 325.59 592.355C312.012 599.185 298.695 604.438 285.639 608.116C273.105 611.793 261.877 614.157 251.955 615.208C242.032 615.733 235.504 615.996 232.371 615.996L71.1051 615.208L141.502 546.649H226.887C254.566 546.649 276.239 537.718 291.906 519.856C307.573 501.995 315.406 478.091 315.406 448.146C315.406 419.777 307.311 395.874 291.122 376.436C274.933 356.998 251.171 347.279 219.837 347.279H141.502V283.448H179.103C190.592 283.448 202.342 283.186 214.354 282.66C226.365 282.135 237.593 279.246 248.038 273.992C258.483 268.738 266.838 259.807 273.105 247.199C279.894 234.591 283.289 216.466 283.289 192.825C283.289 183.369 281.983 173.65 279.372 163.668C276.761 153.161 271.538 143.705 263.705 135.299C255.871 126.894 244.643 120.064 230.021 114.81C215.398 109.557 196.076 106.93 172.053 106.93H141.502L106.304 35.2197H181.453C205.998 35.2197 229.76 38.1092 252.738 43.888C275.716 49.6669 296.083 58.8605 313.839 71.469C331.595 84.0774 345.696 100.626 356.14 121.115C366.585 141.078 371.807 164.982 371.807 192.825C371.807 209.111 369.196 224.084 363.974 237.743C358.751 250.877 352.224 262.434 344.39 272.416C336.557 282.398 327.417 290.803 316.973 297.633C307.05 303.937 297.389 308.14 287.989 310.241Z" fill="#5D4507"/>
<path d="M54.0008 615.996C50.371 615.996 38.8764 615.441 19.5172 614.332L18.3073 567.194C25.567 569.782 33.835 571.076 43.1113 571.076C54.0008 571.076 63.0754 568.858 70.3351 564.422C77.9982 559.985 81.8297 552.961 81.8297 543.348V399.161C81.8297 378.457 87.4761 361.266 98.769 347.587C110.465 333.907 125.186 326.143 142.932 324.295C125.993 322.446 111.473 313.204 99.374 296.567C87.6778 279.93 81.8297 261.629 81.8297 241.665V88.0503C81.8297 78.4379 78.1998 71.5982 70.9401 67.5314C64.0837 63.4646 55.4124 61.4312 44.9262 61.4312C36.0532 61.4312 27.1803 62.9101 18.3073 65.8678L19.5172 19.2843C29.1968 18.1752 40.6914 17.6206 54.0008 17.6206C113.692 17.6206 143.537 45.7186 143.537 101.914V226.137C143.537 246.841 146.562 262.553 152.612 273.275C158.662 283.997 166.526 291.021 176.206 294.348C185.885 297.306 197.783 298.785 211.899 298.785V344.814C197.783 344.814 185.885 346.662 176.206 350.359C166.526 354.057 158.662 361.451 152.612 372.542C146.562 383.633 143.537 399.901 143.537 421.344V529.484C143.537 559.43 135.874 581.058 120.548 594.368C105.625 608.047 83.4429 615.257 54.0008 615.996Z" fill="#265070"/>
</svg>
