<svg width="50" height="57" viewBox="0 0 50 57" fill="none" xmlns="http://www.w3.org/2000/svg">
<path d="M25 2L48 15.2791V41.8372L25 55.1162L2 41.8372V15.2791L25 2Z" stroke="#ED702D" stroke-width="3"/>
<path d="M17.9157 23.1517H20.6099C22.3266 23.1517 23.2565 23.1994 24.3294 23.3186V18.7646C23.2326 18.8839 22.2789 18.9315 20.6099 18.9315H10.1668C8.71242 18.9315 7.40107 18.86 6.61426 18.7646V23.3186C8.30709 23.1755 8.71242 23.1517 10.2145 23.1517H13.0279V35.1684C13.0279 36.6705 12.9803 37.6481 12.8372 38.7687H18.1064C17.9634 37.6481 17.9157 36.599 17.9157 35.1684V23.1517Z" fill="white"/>
<path d="M36.1896 38.7687C40.3383 38.7687 42.7702 36.742 42.7702 33.3087C42.7702 31.7351 42.2457 30.4476 41.2204 29.5415C40.529 28.9455 39.9091 28.6594 38.7408 28.3971C39.7184 28.0395 40.1475 27.801 40.6721 27.348C41.5781 26.5374 42.0549 25.3929 42.0549 23.9385C42.0549 20.7913 39.7899 18.9315 35.9274 18.9315H29.6806C27.7255 18.9315 27.3917 18.9315 26.1757 18.86C26.3188 20.0045 26.3664 21.0297 26.3664 22.2934V35.3353C26.3664 37.0043 26.3188 37.815 26.1757 38.8402C27.2009 38.7925 27.8924 38.7687 29.7044 38.7687H36.1896ZM31.0396 26.5851V22.8417H35.1882C36.5473 22.8417 37.2864 23.5093 37.2864 24.6776C37.2864 25.8459 36.4996 26.5851 35.2359 26.5851H31.0396ZM31.0396 30.3999H35.4028C36.9288 30.3999 37.8348 31.2105 37.8348 32.5934C37.8348 34.0001 36.9288 34.8346 35.4267 34.8346H31.0396V30.3999Z" fill="white"/>
</svg>
