<svg width="865" height="897" viewBox="0 0 865 897" fill="none" xmlns="http://www.w3.org/2000/svg">
<mask id="path-1-inside-1_30_1146" fill="white">
<path fill-rule="evenodd" clip-rule="evenodd" d="M239.857 681.378C241.989 686.068 245.997 688.413 251.881 688.413C256.762 688.413 261.643 687.498 266.523 685.668C272.014 684.448 277.505 683.838 282.996 683.838H286.657C288.487 683.838 289.403 684.448 289.403 685.668C289.403 688.108 284.217 690.854 273.845 693.904C264.083 697.565 253.406 700.31 241.814 702.141C230.832 704.581 223.511 705.801 219.85 705.801C200.777 705.801 188.48 698.872 182.958 685.013C168.975 679.499 161.984 666.835 161.984 647.02C161.984 627.496 167.78 603.092 179.372 573.807C190.964 543.911 206.522 511.271 226.045 475.884C245.569 440.498 266.922 404.502 290.107 367.895C313.291 330.679 336.78 294.682 360.574 259.906C384.368 225.13 406.332 193.709 426.466 165.644C447.209 137.579 464.292 115.005 477.715 97.9224C477.12 91.3811 479.134 85.1296 483.755 79.168C472.74 78.6997 461.645 78.3104 450.471 78C428.507 76.7797 406.848 76.1696 385.495 76.1696C374.513 76.1696 358.345 76.4747 336.991 77.0848C315.637 77.6949 291.843 79.2202 265.608 81.6606C239.984 83.4909 214.054 86.8465 187.82 91.7274C161.585 95.9982 137.181 102.404 114.606 110.946C92.6426 118.877 74.9495 129.249 61.5271 142.061C48.1047 154.264 41.3935 169.211 41.3935 186.904C41.3935 208.258 47.4946 228.087 59.6968 246.39C63.6873 251.901 67.9442 257.204 72.4674 262.301C77.6355 266.896 83.07 271.283 88.7708 275.464C107.684 288.886 125.987 299.563 143.681 307.495C145.511 308.105 148.256 309.63 151.917 312.07C156.188 313.901 158.323 316.036 158.323 318.477C158.323 319.697 157.713 320.612 156.493 321.222H153.747C153.508 321.222 153.265 321.219 153.019 321.213C155.787 322.573 158.541 323.866 161.28 325.094C163.11 325.704 165.856 327.229 169.516 329.67C173.787 331.5 175.922 333.635 175.922 336.076C175.922 337.296 175.312 338.211 174.092 338.821H171.347C168.906 338.821 166.161 338.516 163.11 337.906C160.67 336.686 157.924 335.771 154.874 335.161C135.35 328.449 114.912 319.298 93.5578 307.706C73.7046 296.361 56.7519 282.643 42.6998 266.552C35.1682 259.963 28.2562 252.867 21.9639 245.264C7.3213 226.96 0 205.912 0 182.117C0 172.966 1.52527 163.204 4.57581 152.832C13.7274 123.547 28.37 100.058 48.5036 82.3646C69.2473 64.0614 93.0415 50.0289 119.886 40.2671C147.341 30.5054 175.406 24.0993 204.081 21.0487C233.366 17.3881 261.126 15.5577 287.361 15.5577C325.798 15.5577 363.93 18.3032 401.756 23.7942C439.583 28.6751 477.41 34.4711 515.236 41.1823C518.287 36.9115 521.338 32.3357 524.388 27.4548C528.049 22.574 531.709 18.3032 535.37 14.6426C540.251 9.7617 547.877 6.10104 558.249 3.6606C568.621 1.2202 576.857 0 582.958 0C585.399 0 589.06 0.6101 593.94 1.8303C598.821 2.4404 601.262 4.57579 601.262 8.23646C601.262 9.36463 599.176 12.579 595.003 17.8795C597.018 17.6927 598.87 17.5993 600.558 17.5993C602.998 17.5993 606.659 18.2094 611.54 19.4296C616.421 20.0397 618.861 22.1751 618.861 25.8357C618.861 27.0559 616.421 30.7166 611.54 36.8177C606.989 42.5058 602.174 48.194 597.093 53.8822C622.421 57.7406 647.91 61.4387 673.56 64.9765C709.556 69.2473 745.247 71.3826 780.634 71.3826C791.005 71.3826 798.937 69.2473 804.428 64.9765C810.529 60.7057 815.105 56.74 818.155 53.0794C821.816 48.8087 825.477 46.6733 829.137 46.6733C833.408 46.6733 837.374 48.8087 841.034 53.0794C844.494 56.5389 846.319 60.2709 846.509 64.2753L846.56 64.2742L846.627 64.2732L846.66 64.2729C846.686 64.2727 846.711 64.2726 846.736 64.2726C851.007 64.2726 854.973 66.4079 858.634 70.6787C862.294 74.3393 864.125 78.305 864.125 82.5758C864.125 85.6263 863.209 88.0668 861.379 89.8971C859.549 91.1173 857.413 92.3375 854.973 93.5578C834.839 103.319 818.061 118.572 804.639 139.316C791.217 160.06 778.404 179.278 766.202 196.971C764.982 198.801 762.847 201.852 759.796 206.123C756.746 209.783 754 211.614 751.56 211.614C749.729 211.614 748.814 210.088 748.814 207.038C748.814 199.106 751.56 189.955 757.051 179.583C763.152 168.601 768.948 157.924 774.439 147.552C777.597 141.236 779.847 135.626 781.189 130.722C769.882 148.05 759.02 164.267 748.603 179.372C747.383 181.202 745.247 184.253 742.197 188.523C739.146 192.184 736.401 194.014 733.96 194.014C732.13 194.014 731.215 192.489 731.215 189.439C731.215 181.507 733.96 172.356 739.451 161.984C745.552 151.002 751.348 140.325 756.839 129.953C760.468 122.696 762.898 116.371 764.128 110.979C758.304 109.552 752.284 108.321 746.069 107.285L714.953 101.794C690.549 98.1335 666.449 95.083 642.655 92.6426C618.861 89.592 594.762 86.8465 570.357 84.4061C541.072 119.182 510.262 157.924 477.926 200.632C445.59 242.729 413.865 286.962 382.749 333.33C352.244 379.699 324.789 426.372 300.384 473.35C276.59 520.328 258.287 565.477 245.475 608.794C243.034 616.726 240.899 625.267 239.069 634.419C237.238 644.18 236.323 653.332 236.323 661.874C236.323 664.738 236.572 667.685 237.07 670.715C241.021 670.432 244.973 669.55 248.924 668.069C254.415 666.848 259.906 666.238 265.397 666.238H269.058C270.888 666.238 271.803 666.848 271.803 668.069C271.803 670.509 266.617 673.255 256.245 676.305C251.042 678.256 245.579 679.947 239.857 681.378Z"/>
<path fill-rule="evenodd" clip-rule="evenodd" d="M476.868 325.28C470.815 325.921 464.761 327.251 458.708 329.269L459.918 282.685C469.598 281.576 481.092 281.021 494.402 281.021C521.676 281.021 542.719 286.888 557.531 298.621H621.854C646.399 298.621 670.16 301.51 693.139 307.289C716.117 313.068 736.484 322.261 754.24 334.87C763.665 341.563 772.061 349.366 779.426 358.279C793.658 370.023 805.229 384.635 814.14 402.115C824.585 422.078 829.807 445.982 829.807 473.825C829.807 490.111 827.196 505.084 821.974 518.743C816.751 531.877 810.223 543.434 802.39 553.416C794.556 563.398 785.417 571.803 774.973 578.633C771.495 580.842 768.05 582.794 764.636 584.487C765.347 584.805 766.059 585.131 766.774 585.463C780.352 591.767 792.885 600.698 804.375 612.255C807.51 615.273 810.503 618.469 813.354 621.844C816.29 624.357 819.163 627.027 821.974 629.855C833.985 641.412 843.907 655.597 851.741 672.408C859.574 688.694 863.491 707.607 863.491 729.146C863.491 755.414 859.574 778.004 851.741 796.916C843.907 815.829 833.985 831.59 821.974 844.198C810.485 856.281 797.69 866 783.589 873.355C770.011 880.185 756.694 885.438 743.639 889.116C731.105 892.793 719.877 895.157 709.955 896.208C700.032 896.733 693.504 896.996 690.371 896.996L529.105 896.208L529.663 895.664C524.098 896.396 518.211 896.84 512.001 896.996C508.371 896.996 496.876 896.441 477.517 895.332L477.09 878.68C472.294 878.43 466.571 878.114 459.918 877.733L458.708 830.595C465.968 833.183 474.236 834.477 483.512 834.477C494.402 834.477 503.476 832.259 510.736 827.822C518.399 823.386 522.23 816.361 522.23 806.749V662.562C522.23 641.858 527.877 624.667 539.17 610.988C547.571 601.162 557.532 594.389 569.054 590.667C565.064 587.093 561.283 582.88 557.711 578.027C551.235 573.525 545.257 567.505 539.775 559.968C528.078 543.331 522.23 525.03 522.23 505.066V351.451C522.23 349.217 522.034 347.132 521.642 345.198C516.227 343.353 509.988 342.431 502.926 342.431C494.053 342.431 485.18 343.91 476.307 346.868L476.868 325.28ZM610.612 653.542C604.562 664.633 601.537 680.901 601.537 702.344V810.05H667.288C694.967 810.05 716.639 801.119 732.306 783.257C747.973 765.395 755.807 741.492 755.807 711.547C755.807 685.315 748.886 662.902 735.045 644.306C720.138 633.621 701.069 628.279 677.837 628.279H644.625C640.905 629.1 637.432 630.127 634.206 631.359C624.526 635.057 616.661 642.451 610.612 653.542ZM601.537 507.137C601.537 523.487 603.423 536.724 607.196 546.849H619.504C630.993 546.849 642.743 546.586 654.755 546.061C666.766 545.536 677.994 542.646 688.439 537.393C698.883 532.139 707.239 523.208 713.506 510.6C720.295 497.992 723.689 479.867 723.689 456.226C723.689 446.77 722.384 437.051 719.773 427.069C717.993 419.908 715.001 413.235 710.795 407.05C704.441 402.729 696.85 398.983 688.021 395.81C673.398 390.557 654.076 387.93 630.053 387.93H601.537V507.137Z"/>
</mask>
<path fill-rule="evenodd" clip-rule="evenodd" d="M239.857 681.378C241.989 686.068 245.997 688.413 251.881 688.413C256.762 688.413 261.643 687.498 266.523 685.668C272.014 684.448 277.505 683.838 282.996 683.838H286.657C288.487 683.838 289.403 684.448 289.403 685.668C289.403 688.108 284.217 690.854 273.845 693.904C264.083 697.565 253.406 700.31 241.814 702.141C230.832 704.581 223.511 705.801 219.85 705.801C200.777 705.801 188.48 698.872 182.958 685.013C168.975 679.499 161.984 666.835 161.984 647.02C161.984 627.496 167.78 603.092 179.372 573.807C190.964 543.911 206.522 511.271 226.045 475.884C245.569 440.498 266.922 404.502 290.107 367.895C313.291 330.679 336.78 294.682 360.574 259.906C384.368 225.13 406.332 193.709 426.466 165.644C447.209 137.579 464.292 115.005 477.715 97.9224C477.12 91.3811 479.134 85.1296 483.755 79.168C472.74 78.6997 461.645 78.3104 450.471 78C428.507 76.7797 406.848 76.1696 385.495 76.1696C374.513 76.1696 358.345 76.4747 336.991 77.0848C315.637 77.6949 291.843 79.2202 265.608 81.6606C239.984 83.4909 214.054 86.8465 187.82 91.7274C161.585 95.9982 137.181 102.404 114.606 110.946C92.6426 118.877 74.9495 129.249 61.5271 142.061C48.1047 154.264 41.3935 169.211 41.3935 186.904C41.3935 208.258 47.4946 228.087 59.6968 246.39C63.6873 251.901 67.9442 257.204 72.4674 262.301C77.6355 266.896 83.07 271.283 88.7708 275.464C107.684 288.886 125.987 299.563 143.681 307.495C145.511 308.105 148.256 309.63 151.917 312.07C156.188 313.901 158.323 316.036 158.323 318.477C158.323 319.697 157.713 320.612 156.493 321.222H153.747C153.508 321.222 153.265 321.219 153.019 321.213C155.787 322.573 158.541 323.866 161.28 325.094C163.11 325.704 165.856 327.229 169.516 329.67C173.787 331.5 175.922 333.635 175.922 336.076C175.922 337.296 175.312 338.211 174.092 338.821H171.347C168.906 338.821 166.161 338.516 163.11 337.906C160.67 336.686 157.924 335.771 154.874 335.161C135.35 328.449 114.912 319.298 93.5578 307.706C73.7046 296.361 56.7519 282.643 42.6998 266.552C35.1682 259.963 28.2562 252.867 21.9639 245.264C7.3213 226.96 0 205.912 0 182.117C0 172.966 1.52527 163.204 4.57581 152.832C13.7274 123.547 28.37 100.058 48.5036 82.3646C69.2473 64.0614 93.0415 50.0289 119.886 40.2671C147.341 30.5054 175.406 24.0993 204.081 21.0487C233.366 17.3881 261.126 15.5577 287.361 15.5577C325.798 15.5577 363.93 18.3032 401.756 23.7942C439.583 28.6751 477.41 34.4711 515.236 41.1823C518.287 36.9115 521.338 32.3357 524.388 27.4548C528.049 22.574 531.709 18.3032 535.37 14.6426C540.251 9.7617 547.877 6.10104 558.249 3.6606C568.621 1.2202 576.857 0 582.958 0C585.399 0 589.06 0.6101 593.94 1.8303C598.821 2.4404 601.262 4.57579 601.262 8.23646C601.262 9.36463 599.176 12.579 595.003 17.8795C597.018 17.6927 598.87 17.5993 600.558 17.5993C602.998 17.5993 606.659 18.2094 611.54 19.4296C616.421 20.0397 618.861 22.1751 618.861 25.8357C618.861 27.0559 616.421 30.7166 611.54 36.8177C606.989 42.5058 602.174 48.194 597.093 53.8822C622.421 57.7406 647.91 61.4387 673.56 64.9765C709.556 69.2473 745.247 71.3826 780.634 71.3826C791.005 71.3826 798.937 69.2473 804.428 64.9765C810.529 60.7057 815.105 56.74 818.155 53.0794C821.816 48.8087 825.477 46.6733 829.137 46.6733C833.408 46.6733 837.374 48.8087 841.034 53.0794C844.494 56.5389 846.319 60.2709 846.509 64.2753L846.56 64.2742L846.627 64.2732L846.66 64.2729C846.686 64.2727 846.711 64.2726 846.736 64.2726C851.007 64.2726 854.973 66.4079 858.634 70.6787C862.294 74.3393 864.125 78.305 864.125 82.5758C864.125 85.6263 863.209 88.0668 861.379 89.8971C859.549 91.1173 857.413 92.3375 854.973 93.5578C834.839 103.319 818.061 118.572 804.639 139.316C791.217 160.06 778.404 179.278 766.202 196.971C764.982 198.801 762.847 201.852 759.796 206.123C756.746 209.783 754 211.614 751.56 211.614C749.729 211.614 748.814 210.088 748.814 207.038C748.814 199.106 751.56 189.955 757.051 179.583C763.152 168.601 768.948 157.924 774.439 147.552C777.597 141.236 779.847 135.626 781.189 130.722C769.882 148.05 759.02 164.267 748.603 179.372C747.383 181.202 745.247 184.253 742.197 188.523C739.146 192.184 736.401 194.014 733.96 194.014C732.13 194.014 731.215 192.489 731.215 189.439C731.215 181.507 733.96 172.356 739.451 161.984C745.552 151.002 751.348 140.325 756.839 129.953C760.468 122.696 762.898 116.371 764.128 110.979C758.304 109.552 752.284 108.321 746.069 107.285L714.953 101.794C690.549 98.1335 666.449 95.083 642.655 92.6426C618.861 89.592 594.762 86.8465 570.357 84.4061C541.072 119.182 510.262 157.924 477.926 200.632C445.59 242.729 413.865 286.962 382.749 333.33C352.244 379.699 324.789 426.372 300.384 473.35C276.59 520.328 258.287 565.477 245.475 608.794C243.034 616.726 240.899 625.267 239.069 634.419C237.238 644.18 236.323 653.332 236.323 661.874C236.323 664.738 236.572 667.685 237.07 670.715C241.021 670.432 244.973 669.55 248.924 668.069C254.415 666.848 259.906 666.238 265.397 666.238H269.058C270.888 666.238 271.803 666.848 271.803 668.069C271.803 670.509 266.617 673.255 256.245 676.305C251.042 678.256 245.579 679.947 239.857 681.378Z" stroke="black" stroke-width="2" mask="url(#path-1-inside-1_30_1146)"/>
<path fill-rule="evenodd" clip-rule="evenodd" d="M476.868 325.28C470.815 325.921 464.761 327.251 458.708 329.269L459.918 282.685C469.598 281.576 481.092 281.021 494.402 281.021C521.676 281.021 542.719 286.888 557.531 298.621H621.854C646.399 298.621 670.16 301.51 693.139 307.289C716.117 313.068 736.484 322.261 754.24 334.87C763.665 341.563 772.061 349.366 779.426 358.279C793.658 370.023 805.229 384.635 814.14 402.115C824.585 422.078 829.807 445.982 829.807 473.825C829.807 490.111 827.196 505.084 821.974 518.743C816.751 531.877 810.223 543.434 802.39 553.416C794.556 563.398 785.417 571.803 774.973 578.633C771.495 580.842 768.05 582.794 764.636 584.487C765.347 584.805 766.059 585.131 766.774 585.463C780.352 591.767 792.885 600.698 804.375 612.255C807.51 615.273 810.503 618.469 813.354 621.844C816.29 624.357 819.163 627.027 821.974 629.855C833.985 641.412 843.907 655.597 851.741 672.408C859.574 688.694 863.491 707.607 863.491 729.146C863.491 755.414 859.574 778.004 851.741 796.916C843.907 815.829 833.985 831.59 821.974 844.198C810.485 856.281 797.69 866 783.589 873.355C770.011 880.185 756.694 885.438 743.639 889.116C731.105 892.793 719.877 895.157 709.955 896.208C700.032 896.733 693.504 896.996 690.371 896.996L529.105 896.208L529.663 895.664C524.098 896.396 518.211 896.84 512.001 896.996C508.371 896.996 496.876 896.441 477.517 895.332L477.09 878.68C472.294 878.43 466.571 878.114 459.918 877.733L458.708 830.595C465.968 833.183 474.236 834.477 483.512 834.477C494.402 834.477 503.476 832.259 510.736 827.822C518.399 823.386 522.23 816.361 522.23 806.749V662.562C522.23 641.858 527.877 624.667 539.17 610.988C547.571 601.162 557.532 594.389 569.054 590.667C565.064 587.093 561.283 582.88 557.711 578.027C551.235 573.525 545.257 567.505 539.775 559.968C528.078 543.331 522.23 525.03 522.23 505.066V351.451C522.23 349.217 522.034 347.132 521.642 345.198C516.227 343.353 509.988 342.431 502.926 342.431C494.053 342.431 485.18 343.91 476.307 346.868L476.868 325.28ZM610.612 653.542C604.562 664.633 601.537 680.901 601.537 702.344V810.05H667.288C694.967 810.05 716.639 801.119 732.306 783.257C747.973 765.395 755.807 741.492 755.807 711.547C755.807 685.315 748.886 662.902 735.045 644.306C720.138 633.621 701.069 628.279 677.837 628.279H644.625C640.905 629.1 637.432 630.127 634.206 631.359C624.526 635.057 616.661 642.451 610.612 653.542ZM601.537 507.137C601.537 523.487 603.423 536.724 607.196 546.849H619.504C630.993 546.849 642.743 546.586 654.755 546.061C666.766 545.536 677.994 542.646 688.439 537.393C698.883 532.139 707.239 523.208 713.506 510.6C720.295 497.992 723.689 479.867 723.689 456.226C723.689 446.77 722.384 437.051 719.773 427.069C717.993 419.908 715.001 413.235 710.795 407.05C704.441 402.729 696.85 398.983 688.021 395.81C673.398 390.557 654.076 387.93 630.053 387.93H601.537V507.137Z" stroke="black" stroke-width="2" mask="url(#path-1-inside-1_30_1146)"/>
</svg>
