<svg width="865" height="706" viewBox="0 0 865 706" fill="none" xmlns="http://www.w3.org/2000/svg">
<path d="M202.251 688.202C175.406 688.202 161.984 674.475 161.984 647.02C161.984 627.496 167.78 603.092 179.372 573.807C190.964 543.912 206.522 511.271 226.045 475.884C245.569 440.498 266.922 404.502 290.107 367.895C313.291 330.679 336.78 294.682 360.574 259.906C384.368 225.13 406.332 193.709 426.466 165.644C447.209 137.579 464.292 115.005 477.715 97.9224C477.105 91.2112 479.24 84.805 484.121 78.7039C489.612 72.6029 494.188 67.417 497.848 63.1462C476.495 61.926 454.836 61.0108 432.872 60.4007C410.908 59.1805 389.249 58.5704 367.895 58.5704C356.913 58.5704 340.745 58.8754 319.392 59.4856C298.038 60.0957 274.244 61.6209 248.009 64.0614C222.384 65.8917 196.455 69.2473 170.22 74.1281C143.986 78.3989 119.581 84.8051 97.0072 93.3466C75.0433 101.278 57.3502 111.65 43.9278 124.462C30.5054 136.664 23.7942 151.612 23.7942 169.305C23.7942 190.659 29.8953 210.487 42.0975 228.791C54.9097 246.484 70.4675 262.042 88.7708 275.464C107.684 288.886 125.987 299.563 143.681 307.495C145.511 308.105 148.256 309.63 151.917 312.07C156.188 313.901 158.323 316.036 158.323 318.477C158.323 319.697 157.713 320.612 156.493 321.222C155.273 321.222 154.357 321.222 153.747 321.222C151.307 321.222 148.561 320.917 145.511 320.307C143.07 319.087 140.325 318.171 137.274 317.561C117.751 310.85 97.3123 301.699 75.9585 290.106C54.6047 277.904 36.6065 262.957 21.9639 245.264C7.3213 226.96 0 205.912 0 182.117C0 172.966 1.52527 163.204 4.57581 152.832C13.7274 123.547 28.37 100.058 48.5036 82.3646C69.2473 64.0614 93.0415 50.0289 119.886 40.2671C147.341 30.5054 175.406 24.0993 204.081 21.0487C233.366 17.3881 261.126 15.5577 287.361 15.5577C325.798 15.5577 363.93 18.3032 401.756 23.7942C439.583 28.6751 477.41 34.4711 515.236 41.1823C518.287 36.9115 521.338 32.3357 524.388 27.4548C528.049 22.574 531.709 18.3032 535.37 14.6426C540.251 9.7617 547.877 6.10104 558.249 3.6606C568.621 1.2202 576.857 0 582.958 0C585.399 0 589.06 0.6101 593.94 1.8303C598.821 2.4404 601.262 4.57579 601.262 8.23646C601.262 9.45667 598.821 13.1173 593.94 19.2184C589.06 25.3195 583.874 31.4205 578.383 37.5216C573.502 43.6227 570.146 47.5884 568.316 49.4187C603.092 54.9097 638.173 60.0956 673.56 64.9765C709.556 69.2473 745.247 71.3826 780.634 71.3826C791.005 71.3826 798.937 69.2473 804.428 64.9765C810.529 60.7057 815.105 56.74 818.155 53.0794C821.816 48.8087 825.477 46.6733 829.137 46.6733C833.408 46.6733 837.374 48.8087 841.034 53.0794C844.695 56.74 846.525 60.7057 846.525 64.9765C846.525 68.0271 845.61 70.4675 843.78 72.2978C841.95 73.518 839.814 74.7382 837.374 75.9585C817.24 85.7202 800.462 100.973 787.04 121.717C773.617 142.46 760.805 161.679 748.603 179.372C747.383 181.202 745.247 184.253 742.197 188.523C739.146 192.184 736.401 194.014 733.96 194.014C732.13 194.014 731.215 192.489 731.215 189.439C731.215 181.507 733.96 172.356 739.451 161.984C745.552 151.002 751.348 140.325 756.839 129.953C762.33 118.971 765.076 110.125 765.076 103.413C765.076 99.7527 763.246 97.6173 759.585 97.0072C749.823 93.9566 739.451 91.5162 728.469 89.6859C718.098 87.8556 707.726 86.0252 697.354 84.1949C672.949 80.5343 648.85 77.4837 625.056 75.0433C601.262 71.9927 577.162 69.2473 552.758 66.8068C523.473 101.583 492.662 140.325 460.327 183.032C427.991 225.13 396.265 269.363 365.15 315.731C334.644 362.099 307.19 408.773 282.785 455.751C258.991 502.729 240.688 547.877 227.875 591.195C225.435 599.126 223.3 607.668 221.469 616.819C219.639 626.581 218.724 635.733 218.724 644.274C218.724 649.765 219.639 655.561 221.469 661.662C223.3 667.764 227.57 670.814 234.282 670.814C239.162 670.814 244.043 669.899 248.924 668.069C254.415 666.848 259.906 666.238 265.397 666.238C266.007 666.238 267.227 666.238 269.058 666.238C270.888 666.238 271.803 666.848 271.803 668.069C271.803 670.509 266.617 673.255 256.245 676.305C246.484 679.966 235.807 682.711 224.215 684.542C213.233 686.982 205.912 688.202 202.251 688.202Z" fill="#FFD700"/>
<path d="M219.85 705.801C193.005 705.801 179.583 692.074 179.583 664.619C179.583 645.096 185.379 620.691 196.971 591.406C208.563 561.511 224.121 528.87 243.644 493.484C263.168 458.097 284.522 422.101 307.706 385.495C330.89 348.278 354.379 312.282 378.173 277.505C401.968 242.729 423.931 211.309 444.065 183.244C464.809 155.179 481.892 132.605 495.314 115.522C494.704 108.81 496.839 102.404 501.72 96.3032C507.211 90.2021 511.787 85.0162 515.448 80.7455C494.094 79.5253 472.435 78.6101 450.471 78C428.507 76.7797 406.848 76.1696 385.495 76.1696C374.513 76.1696 358.345 76.4747 336.991 77.0848C315.637 77.6949 291.843 79.2202 265.608 81.6606C239.984 83.4909 214.054 86.8465 187.82 91.7274C161.585 95.9982 137.181 102.404 114.606 110.946C92.6426 118.877 74.9495 129.249 61.5271 142.061C48.1047 154.264 41.3935 169.211 41.3935 186.904C41.3935 208.258 47.4946 228.087 59.6968 246.39C72.509 264.083 88.0668 279.641 106.37 293.063C125.283 306.486 143.587 317.162 161.28 325.094C163.11 325.704 165.856 327.229 169.516 329.67C173.787 331.5 175.922 333.635 175.922 336.076C175.922 337.296 175.312 338.211 174.092 338.821C172.872 338.821 171.957 338.821 171.347 338.821C168.906 338.821 166.161 338.516 163.11 337.906C160.67 336.686 157.924 335.771 154.874 335.161C135.35 328.449 114.912 319.298 93.5578 307.706C72.204 295.504 54.2058 280.556 39.5632 262.863C24.9206 244.56 17.5993 223.511 17.5993 199.717C17.5993 190.565 19.1245 180.803 22.1751 170.431C31.3267 141.146 45.9693 117.657 66.1029 99.9639C86.8466 81.6606 110.641 67.6282 137.486 57.8664C164.94 48.1047 193.005 41.6986 221.681 38.648C250.966 34.9873 278.726 33.157 304.96 33.157C343.397 33.157 381.529 35.9025 419.356 41.3935C457.182 46.2743 495.009 52.0704 532.836 58.7815C535.886 54.5108 538.937 49.935 541.987 45.0541C545.648 40.1732 549.309 35.9025 552.969 32.2419C557.85 27.361 565.477 23.7003 575.848 21.2599C586.22 18.8195 594.457 17.5993 600.558 17.5993C602.998 17.5993 606.659 18.2094 611.54 19.4296C616.421 20.0397 618.861 22.1751 618.861 25.8357C618.861 27.0559 616.421 30.7166 611.54 36.8177C606.659 42.9187 601.473 49.0198 595.982 55.1209C591.101 61.222 587.745 65.1877 585.915 67.018C620.691 72.509 655.773 77.6949 691.159 82.5758C727.155 86.8465 762.847 88.9819 798.233 88.9819C808.605 88.9819 816.536 86.8465 822.027 82.5758C828.128 78.305 832.704 74.3393 835.755 70.6787C839.415 66.4079 843.076 64.2726 846.736 64.2726C851.007 64.2726 854.973 66.4079 858.634 70.6787C862.294 74.3393 864.125 78.305 864.125 82.5758C864.125 85.6263 863.209 88.0668 861.379 89.8971C859.549 91.1173 857.413 92.3375 854.973 93.5578C834.839 103.319 818.061 118.572 804.639 139.316C791.217 160.06 778.404 179.278 766.202 196.971C764.982 198.801 762.847 201.852 759.796 206.123C756.746 209.783 754 211.614 751.56 211.614C749.729 211.614 748.814 210.088 748.814 207.038C748.814 199.106 751.56 189.955 757.051 179.583C763.152 168.601 768.948 157.924 774.439 147.552C779.93 136.57 782.675 127.724 782.675 121.013C782.675 117.352 780.845 115.217 777.184 114.606C767.422 111.556 757.051 109.115 746.069 107.285C735.697 105.455 725.325 103.625 714.953 101.794C690.549 98.1335 666.449 95.083 642.655 92.6426C618.861 89.592 594.762 86.8465 570.357 84.4061C541.072 119.182 510.262 157.924 477.926 200.632C445.59 242.729 413.865 286.962 382.749 333.33C352.244 379.699 324.789 426.372 300.384 473.35C276.59 520.328 258.287 565.477 245.475 608.794C243.034 616.726 240.899 625.267 239.069 634.419C237.238 644.18 236.323 653.332 236.323 661.874C236.323 667.365 237.238 673.161 239.069 679.262C240.899 685.363 245.17 688.413 251.881 688.413C256.762 688.413 261.643 687.498 266.523 685.668C272.014 684.448 277.505 683.838 282.996 683.838C283.607 683.838 284.827 683.838 286.657 683.838C288.487 683.838 289.403 684.448 289.403 685.668C289.403 688.108 284.217 690.854 273.845 693.904C264.083 697.565 253.406 700.31 241.814 702.141C230.832 704.581 223.511 705.801 219.85 705.801Z" fill="#5D4507"/>
</svg>
