<svg xmlns="http://www.w3.org/2000/svg" version="1.1" xmlns:xlink="http://www.w3.org/1999/xlink" xmlns:svgjs="http://svgjs.dev/svgjs" width="512" height="512"><svg xmlns="http://www.w3.org/2000/svg" viewBox="0 0 512 512">
  <path fill="#6B46C1" d="M459.265 284.654c1.342-2.116 1.968-4.741 1.735-7.514-.22-2.772-1.279-5.247-2.935-7.124L278.635 49.275c-2.535-2.87-6.668-4.241-10.802-3.608-4.134.634-7.458 3.253-8.744 6.892-31.68 89.712-74.238 150.72-130.526 187.203-43.103 27.943-92.444 41.118-146.563 39.12l-1.735-.073c-3.901-.147-7.582 1.537-9.684 4.48-2.102 2.944-2.492 6.892-1.003 10.251 19.588 44.397 49.322 82.747 88.396 114.244 39.074 31.496 85.435 54.282 137.927 67.853 6.595 1.708 13.19 3.269 19.784 4.683 65.348 14.218 125.954 12.217 180.673-5.977 65.055-21.649 118.13-65.486 157.936-130.597 2.492-4.094 2.273-9.397-.587-13.236l-94.442-146.858z"></path>
</svg><style>@media (prefers-color-scheme: light) { :root { filter: none; } }
@media (prefers-color-scheme: dark) { :root { filter: none; } }
</style></svg>